<svg xmlns="http://www.w3.org/2000/svg" viewBox="0 0 24 24" width="24" height="24" fill="currentColor"><path d="M12 .5C5.7.5.8 5.4.8 11.7c0 4.9 3.2 9 7.6 10.5.6.1.8-.3.8-.6v-2.1c-3.1.7-3.7-1.3-3.7-1.3-.5-1.2-1.2-1.6-1.2-1.6-1-.6.1-.6.1-.6 1.1.1 1.7 1.1 1.7 1.1 1 .1.7 1.8 2.7 1.3.1-.8.4-1.3.7-1.6-2.5-.3-5.1-1.3-5.1-5.8 0-1.3.5-2.4 1.2-3.2-.1-.3-.5-1.6.1-3.3 0 0 1-.3 3.3 1.2a11.3 11.3 0 0 1 6 0C20.4 3.5 21.4 3.8 21.4 3.8c.6 1.7.2 3 .1 3.3.8.8 1.2 1.9 1.2 3.2 0 4.5-2.6 5.5-5.1 5.8.4.4.7 1 .7 2v3c0 .3.2.7.8.6 4.4-1.5 7.6-5.6 7.6-10.5C23.2 5.4 18.3.5 12 .5z"/></svg>

